<?xml version="1.0" encoding="utf-8"?>
<!-- Generator: Adobe Illustrator 24.1.1, SVG Export Plug-In . SVG Version: 6.00 Build 0)  -->
<svg version="1.1" id="Layer_1" xmlns="http://www.w3.org/2000/svg" xmlns:xlink="http://www.w3.org/1999/xlink" x="0px" y="0px"
	 viewBox="0 0 1000 1000" style="enable-background:new 0 0 1000 1000;" xml:space="preserve">
<style type="text/css">
	.st0{fill:#FFFFFF;stroke:#000000;stroke-miterlimit:10;}
	.st1{fill:url(#SVGID_1_);}
	.st2{fill:url(#SVGID_2_);}
	.st3{fill:url(#SVGID_3_);}
	.st4{fill:url(#SVGID_4_);}
	.st5{fill:url(#SVGID_5_);}
	.st6{fill:url(#SVGID_6_);}
	.st7{fill:url(#SVGID_7_);}
	.st8{fill:url(#SVGID_8_);}
	.st9{fill:url(#SVGID_9_);}
	.st10{fill:url(#SVGID_10_);}
	.st11{fill:url(#SVGID_11_);}
	.st12{font-family:'AvenirLTStd-Light';}
	.st13{font-size:40.5771px;}
	.st14{fill:none;stroke:#000000;stroke-width:3;stroke-miterlimit:10;}
</style>
<rect class="st0" width="1000" height="1000"/>
<g>
	<g>
		<linearGradient id="SVGID_1_" gradientUnits="userSpaceOnUse" x1="119.8971" y1="397.9084" x2="119.8971" y2="551.2324">
			<stop  offset="0.5279" style="stop-color:#102EA6"/>
			<stop  offset="1" style="stop-color:#AF00D4"/>
		</linearGradient>
		<path class="st1" d="M176.83,535.1c2.38-2.09,4.19-3.74,4.19-3.74c-39.42,11.43-52.55,1.73-52.55,1.73l0,0
			c-14.17-6.55-21.64-21.65-21.64-42.7v-60.33c0-21.15,2-22.86,19.79-24.32v-7.84H58.77v7.84c17.93,1.62,19.94,3.16,19.94,24.32
			v58.78c0,26.35,6.32,41.63,19.93,51.98c7.07,5.63,16.3,8.39,25.82,9.94c8.2,0.87,15.5,0.46,21.9-0.72
			C157.68,547.96,168.18,542.7,176.83,535.1z"/>
		<linearGradient id="SVGID_2_" gradientUnits="userSpaceOnUse" x1="169.1995" y1="397.7157" x2="169.1995" y2="450.939">
			<stop  offset="0.5279" style="stop-color:#102EA6"/>
			<stop  offset="1" style="stop-color:#AF00D4"/>
		</linearGradient>
		<path class="st2" d="M169.2,450.94L169.2,450.94c-6.75,0-12.22-5.47-12.22-12.22v-28.78c0-6.75,5.47-12.22,12.22-12.22h0
			c6.75,0,12.22,5.47,12.22,12.22v28.78C181.42,445.47,175.95,450.94,169.2,450.94z"/>
	</g>
	<g>
		<g>
			<linearGradient id="SVGID_3_" gradientUnits="userSpaceOnUse" x1="197.1055" y1="477.5215" x2="981.14" y2="477.5215">
				<stop  offset="0" style="stop-color:#254AC1"/>
				<stop  offset="0.5305" style="stop-color:#AC3DA0"/>
				<stop  offset="1" style="stop-color:#2965BB"/>
			</linearGradient>
			<path class="st3" d="M213.81,539.06h-16.7V493.7c0-26.55,17.76-44.31,45.19-44.31c26.55,0,44.31,17.76,44.31,44.31v45.36h-16.88
				v-46.77c0-16.35-11.25-27.25-28.13-27.25c-16.35,0-27.78,11.08-27.78,27.25V539.06z"/>
			<linearGradient id="SVGID_4_" gradientUnits="userSpaceOnUse" x1="197.1055" y1="477.5215" x2="981.14" y2="477.5215">
				<stop  offset="0" style="stop-color:#254AC1"/>
				<stop  offset="0.5305" style="stop-color:#AC3DA0"/>
				<stop  offset="1" style="stop-color:#2965BB"/>
			</linearGradient>
			<path class="st4" d="M311.22,414.22c6.15,0,10.2,3.87,10.2,9.67c0,5.8-4.04,9.67-10.2,9.67c-5.98,0-10.02-3.87-10.02-9.67
				C301.2,418.09,305.24,414.22,311.22,414.22z M302.96,451.15h16.7v87.91h-16.7V451.15z"/>
			<linearGradient id="SVGID_5_" gradientUnits="userSpaceOnUse" x1="197.1055" y1="477.5215" x2="981.14" y2="477.5215">
				<stop  offset="0" style="stop-color:#254AC1"/>
				<stop  offset="0.5305" style="stop-color:#AC3DA0"/>
				<stop  offset="1" style="stop-color:#2965BB"/>
			</linearGradient>
			<path class="st5" d="M397.02,431.28v107.78H380.5V431.28h-45.36v-15.3h107.25v15.3H397.02z"/>
			<linearGradient id="SVGID_6_" gradientUnits="userSpaceOnUse" x1="197.1055" y1="477.5215" x2="981.14" y2="477.5215">
				<stop  offset="0" style="stop-color:#254AC1"/>
				<stop  offset="0.5305" style="stop-color:#AC3DA0"/>
				<stop  offset="1" style="stop-color:#2965BB"/>
			</linearGradient>
			<path class="st6" d="M472.81,497.04c0.35,16.7,11.96,28.48,29.89,28.48c14.24,0,23.91-7.74,27.08-19.69h17.06
				c-3.87,21.98-20.22,34.99-44.48,34.99c-27.78,0-46.24-18.29-46.24-45.71c0-27.43,18.46-45.72,46.24-45.72
				c26.55,0,44.66,16.18,44.48,42.73v4.92H472.81z M529.42,484.2c-2.64-12.84-12.48-20.57-26.9-20.57s-24.97,8.62-28.48,20.57
				H529.42z"/>
			<linearGradient id="SVGID_7_" gradientUnits="userSpaceOnUse" x1="197.1055" y1="477.5215" x2="981.14" y2="477.5215">
				<stop  offset="0" style="stop-color:#254AC1"/>
				<stop  offset="0.5305" style="stop-color:#AC3DA0"/>
				<stop  offset="1" style="stop-color:#2965BB"/>
			</linearGradient>
			<path class="st7" d="M578.13,539.06h-16.7v-43.08c0-28.48,18.11-46.24,46.07-46.24v16.18c-17.58,0-29.36,10.73-29.36,27.96
				V539.06z"/>
			<linearGradient id="SVGID_8_" gradientUnits="userSpaceOnUse" x1="197.1055" y1="477.5215" x2="981.14" y2="477.5215">
				<stop  offset="0" style="stop-color:#254AC1"/>
				<stop  offset="0.5305" style="stop-color:#AC3DA0"/>
				<stop  offset="1" style="stop-color:#2965BB"/>
			</linearGradient>
			<path class="st8" d="M637.92,539.06h-16.7v-43.08c0-28.48,18.11-46.24,46.07-46.24v16.18c-17.58,0-29.36,10.73-29.36,27.96
				V539.06z"/>
			<linearGradient id="SVGID_9_" gradientUnits="userSpaceOnUse" x1="197.1055" y1="477.5215" x2="981.14" y2="477.5215">
				<stop  offset="0" style="stop-color:#254AC1"/>
				<stop  offset="0.5305" style="stop-color:#AC3DA0"/>
				<stop  offset="1" style="stop-color:#2965BB"/>
			</linearGradient>
			<path class="st9" d="M697.7,497.04c0.35,16.7,11.96,28.48,29.89,28.48c14.24,0,23.91-7.74,27.08-19.69h17.05
				c-3.87,21.98-20.22,34.99-44.48,34.99c-27.78,0-46.24-18.29-46.24-45.71c0-27.43,18.46-45.72,46.24-45.72
				c26.55,0,44.66,16.18,44.48,42.73v4.92H697.7z M754.32,484.2c-2.64-12.84-12.48-20.57-26.9-20.57
				c-14.42,0-24.97,8.62-28.48,20.57H754.32z"/>
			<linearGradient id="SVGID_10_" gradientUnits="userSpaceOnUse" x1="197.1055" y1="477.5215" x2="981.14" y2="477.5215">
				<stop  offset="0" style="stop-color:#254AC1"/>
				<stop  offset="0.5305" style="stop-color:#AC3DA0"/>
				<stop  offset="1" style="stop-color:#2965BB"/>
			</linearGradient>
			<path class="st10" d="M803.02,539.06h-16.7V493.7c0-26.55,17.76-44.31,45.19-44.31c26.55,0,44.31,17.76,44.31,44.31v45.36h-16.88
				v-46.77c0-16.35-11.25-27.25-28.13-27.25c-16.35,0-27.78,11.08-27.78,27.25V539.06z"/>
			<linearGradient id="SVGID_11_" gradientUnits="userSpaceOnUse" x1="197.1055" y1="477.5215" x2="981.14" y2="477.5215">
				<stop  offset="0" style="stop-color:#254AC1"/>
				<stop  offset="0.5305" style="stop-color:#AC3DA0"/>
				<stop  offset="1" style="stop-color:#2965BB"/>
			</linearGradient>
			<path class="st11" d="M907.12,497.04c0.35,16.7,11.96,28.48,29.89,28.48c14.24,0,23.91-7.74,27.08-19.69h17.05
				c-3.87,21.98-20.22,34.99-44.48,34.99c-27.78,0-46.24-18.29-46.24-45.71c0-27.43,18.46-45.72,46.24-45.72
				c26.55,0,44.66,16.18,44.48,42.73v4.92H907.12z M963.73,484.2c-2.64-12.84-12.48-20.57-26.9-20.57s-24.97,8.62-28.48,20.57
				H963.73z"/>
		</g>
	</g>
	<g>
		<text transform="matrix(1 0 0 1 479.4089 600.2522)" class="st12 st13">Code Your Future Today!</text>
		<line class="st14" x1="461.09" y1="589.21" x2="374.52" y2="589.21"/>
	</g>
</g>
</svg>
