<svg width="16" height="14" viewBox="0 0 16 14" fill="none" xmlns="http://www.w3.org/2000/svg">
<path d="M7.99875 5.75312L14.2566 7.30671C15.3457 6.88165 16 6.33965 16 5.75312V3.25421C16 1.87671 12.4171 0.756836 7.99875 0.756836C3.58084 0.756836 0 1.87674 0 3.25421V5.75312C0 7.13112 3.58063 8.24952 7.99847 8.24952L7.99875 5.75312ZM0 8.24952V10.7469C0 12.1254 3.58084 13.2433 7.99875 13.2433L7.99847 10.7466C3.58063 10.7466 0 9.62802 0 8.24952ZM14.2561 9.80462L7.99847 8.24952V10.7466L14.2561 12.302C15.3457 11.8749 16 11.3349 16 10.7464V8.24952C16.0005 8.83805 15.3457 9.37802 14.2561 9.80462Z" fill="#FFCC00"/>
</svg>
