<svg width="38" height="56" viewBox="0 0 38 56" fill="none" xmlns="http://www.w3.org/2000/svg">
<path d="M24.1506 7.9072C21.9035 5.26805 19.9685 2.58753 19.5732 2.03091C19.5638 2.02115 19.5525 2.01337 19.5399 2.00805C19.5274 2.00274 19.5139 2 19.5003 2C19.4867 2 19.4732 2.00274 19.4607 2.00805C19.4481 2.01337 19.4368 2.02115 19.4275 2.03091C19.0321 2.58763 17.0971 5.26805 14.8499 7.9072C-4.43787 32.2576 17.8878 48.6906 17.8878 48.6906L18.075 48.8144C18.2414 51.3504 18.6576 55 18.6576 55H20.3222C20.3222 55 20.7382 51.3711 20.9047 48.8145L21.092 48.6701C21.1128 48.6907 43.4385 32.2577 24.1506 7.9072ZM19.4899 48.3194C19.4899 48.3194 18.4911 47.4742 18.2206 47.0413V46.9999L19.4275 20.4845C19.4275 20.4021 19.5524 20.4021 19.5524 20.4845L20.7591 46.9999V47.0413C20.4886 47.4742 19.4899 48.3194 19.4899 48.3194Z" fill="#FFCC00"/>
</svg>
