<svg width="49" height="38" viewBox="0 0 49 38" fill="none" xmlns="http://www.w3.org/2000/svg">
<path d="M15.8087 5.91382C14.5643 5.91382 13.5639 6.26907 12.8612 7.03032C12.1634 7.76982 11.8413 8.79932 11.8413 10.0608C11.8397 11.0017 12.0527 11.8572 12.4806 12.6273V12.6322C12.9051 13.3789 13.6347 14.1933 14.6448 15.073V15.0754C15.4256 15.7497 15.9332 16.3055 16.1967 16.7477V16.7526C16.4537 17.1634 16.583 17.6588 16.5846 18.2388C16.5846 18.7391 16.4797 19.0242 16.3455 19.1741C16.2308 19.3046 16.0381 19.3988 15.6989 19.3988C15.3573 19.3988 15.1621 19.3022 15.0401 19.1572C14.9108 19.0049 14.8132 18.7342 14.8132 18.2823V16.8758H11.7974V18.1083C11.7974 19.3964 12.1121 20.4428 12.7904 21.1992L12.7929 21.2017C13.4834 21.9508 14.4814 22.2988 15.7209 22.2988C16.975 22.2988 17.9876 21.9436 18.6904 21.1823C19.4028 20.4259 19.7322 19.3698 19.7322 18.0648C19.7355 17.0579 19.5305 16.1677 19.1174 15.3944C18.7074 14.6259 17.973 13.8018 16.9482 12.9197C16.1674 12.2479 15.6526 11.6945 15.372 11.2619C15.1194 10.855 14.9867 10.3862 14.9889 9.90857C14.9889 9.4639 15.0816 9.19565 15.2085 9.04582C15.3207 8.90807 15.5062 8.81382 15.8307 8.81382C16.143 8.81382 16.3284 8.90807 16.448 9.05065L16.4553 9.06032C16.5724 9.19324 16.6725 9.46148 16.6725 9.95207V11.0976H19.6883V10.1043C19.6883 8.81865 19.376 7.77707 18.6952 7.03515C18.0218 6.26907 17.036 5.91382 15.8087 5.91382Z" fill="#FFCC00"/>
<path fill-rule="evenodd" clip-rule="evenodd" d="M33.0985 5.91382C31.8419 5.91382 30.8244 6.26907 30.1071 7.03032C29.397 7.78432 29.0652 8.8259 29.0652 10.1043V18.1083C29.0652 19.3867 29.397 20.4283 30.1095 21.1823C30.8244 21.9436 31.8419 22.2988 33.0985 22.2988C34.3551 22.2988 35.3726 21.9436 36.0899 21.1823C36.8 20.4283 37.1318 19.3867 37.1318 18.1083V10.1043C37.1318 8.82349 36.8 7.78432 36.0899 7.03032C35.3726 6.26907 34.3575 5.91382 33.0985 5.91382ZM32.2128 9.95207C32.2128 9.4929 32.3104 9.21499 32.4421 9.0579C32.5641 8.9129 32.7593 8.81382 33.1009 8.81382C33.4401 8.81382 33.6353 8.91049 33.7549 9.05549C33.8866 9.21499 33.9842 9.49048 33.9842 9.95207V18.2606C33.9842 18.7197 33.8866 18.9977 33.7549 19.1547C33.6329 19.2997 33.4377 19.3988 33.0985 19.3988C32.7569 19.3988 32.5617 19.3022 32.4421 19.1572C32.3104 18.9977 32.2128 18.7222 32.2128 18.2606V9.95207Z" fill="#FFCC00"/>
<path d="M28.1454 6.13135H20.8254V22.0813H28.1454V19.1813H23.973V15.2301H27.289V12.3301H23.9706V9.03135H28.143L28.1454 6.13135Z" fill="#FFCC00"/>
<path fill-rule="evenodd" clip-rule="evenodd" d="M5.68019 0.0822754C4.22415 0.0822754 2.82774 0.655154 1.79817 1.67488C0.768595 2.69461 0.190186 4.07766 0.190186 5.51978V23.4176C0.190186 24.8597 0.768595 26.2428 1.79817 27.2625C2.82774 28.2822 4.22415 28.8551 5.68019 28.8551H22.7602V34.2926H17.2702C16.7848 34.2926 16.3194 34.4836 15.9762 34.8235C15.633 35.1634 15.4402 35.6244 15.4402 36.1051C15.4402 36.5858 15.633 37.0468 15.9762 37.3867C16.3194 37.7267 16.7848 37.9176 17.2702 37.9176H31.9102C32.3955 37.9176 32.861 37.7267 33.2042 37.3867C33.5474 37.0468 33.7402 36.5858 33.7402 36.1051C33.7402 35.6244 33.5474 35.1634 33.2042 34.8235C32.861 34.4836 32.3955 34.2926 31.9102 34.2926H26.4202V28.8551H43.5002C44.9562 28.8551 46.3526 28.2822 47.3822 27.2625C48.4118 26.2428 48.9902 24.8597 48.9902 23.4176V5.51978C48.9902 4.07766 48.4118 2.69461 47.3822 1.67488C46.3526 0.655154 44.9562 0.0822754 43.5002 0.0822754H5.68019ZM3.85019 5.51978C3.85019 5.03907 4.04299 4.57805 4.38618 4.23814C4.72937 3.89823 5.19484 3.70728 5.68019 3.70728H43.5002C43.9855 3.70728 44.451 3.89823 44.7942 4.23814C45.1374 4.57805 45.3302 5.03907 45.3302 5.51978V23.4176C45.3302 23.8983 45.1374 24.3593 44.7942 24.6992C44.451 25.0391 43.9855 25.2301 43.5002 25.2301H5.68019C5.19484 25.2301 4.72937 25.0391 4.38618 24.6992C4.04299 24.3593 3.85019 23.8983 3.85019 23.4176V5.51978Z" fill="#FFCC00"/>
</svg>
