<svg width="22" height="15" viewBox="0 0 22 15" fill="none" xmlns="http://www.w3.org/2000/svg">
<path fill-rule="evenodd" clip-rule="evenodd" d="M0 2.5C0 1.96957 0.210714 1.46086 0.585786 1.08579C0.960859 0.710714 1.46957 0.5 2 0.5H20C20.5304 0.5 21.0391 0.710714 21.4142 1.08579C21.7893 1.46086 22 1.96957 22 2.5V9.5C22 10.0304 21.7893 10.5391 21.4142 10.9142C21.0391 11.2893 20.5304 11.5 20 11.5H14.239L15.486 14.62L9.87 11.5H2C1.46957 11.5 0.960859 11.2893 0.585786 10.9142C0.210714 10.5391 0 10.0304 0 9.5V2.5ZM10.297 2.677C10.3433 2.58831 10.3714 2.49126 10.3796 2.39155C10.3878 2.29184 10.376 2.1915 10.3449 2.09643C10.3137 2.00135 10.2639 1.91347 10.1982 1.83796C10.1326 1.76245 10.0525 1.70083 9.96274 1.65673C9.87294 1.61263 9.77522 1.58694 9.67534 1.58118C9.57546 1.57541 9.47544 1.58969 9.38116 1.62317C9.28689 1.65665 9.20026 1.70865 9.12638 1.77611C9.05251 1.84358 8.99288 1.92514 8.951 2.016C8.1822 3.58637 7.73059 5.29292 7.622 7.038C7.22 6.146 6.982 5.178 6.885 4.127C6.87002 3.96669 6.80385 3.81545 6.69628 3.69566C6.5887 3.57586 6.44543 3.49387 6.28765 3.46179C6.12987 3.42972 5.96595 3.44928 5.82014 3.51757C5.67434 3.58586 5.55437 3.69926 5.478 3.841L3.48 7.563C3.10496 5.90191 2.82451 4.22088 2.64 2.528C2.63115 2.42836 2.60247 2.3315 2.55562 2.24311C2.50878 2.15473 2.44473 2.0766 2.36724 2.01334C2.28976 1.95008 2.2004 1.90296 2.10442 1.87476C2.00845 1.84655 1.90781 1.83783 1.80841 1.8491C1.70902 1.86037 1.61288 1.89141 1.52567 1.9404C1.43845 1.98938 1.36191 2.05532 1.30056 2.13433C1.23921 2.21334 1.19429 2.30382 1.16843 2.40045C1.14257 2.49708 1.13631 2.59791 1.15 2.697C1.34395 4.46492 1.63809 6.22041 2.031 7.955C2.16559 8.54031 2.31968 9.12097 2.493 9.696L2.535 9.824C2.58144 9.96285 2.66749 10.0851 2.78256 10.1756C2.89763 10.2661 3.03667 10.321 3.18255 10.3334C3.32842 10.3458 3.47475 10.3153 3.60348 10.2456C3.73222 10.1759 3.83772 10.07 3.907 9.941L5.796 6.419C6.19366 7.78105 6.89451 9.0354 7.846 10.088C7.95118 10.2057 8.0908 10.2872 8.24499 10.3209C8.39918 10.3546 8.56007 10.3388 8.70476 10.2758C8.84946 10.2127 8.97058 10.1057 9.05088 9.96978C9.13118 9.8339 9.16656 9.67616 9.152 9.519C8.932 7.099 9.247 4.814 10.296 2.677H10.297ZM12.301 4.368C12.008 4.646 11.745 5.098 11.63 5.67C11.514 6.242 11.58 6.761 11.741 7.131C11.905 7.503 12.129 7.662 12.321 7.701C12.511 7.74 12.781 7.681 13.075 7.401C13.368 7.124 13.631 6.671 13.747 6.099C13.863 5.527 13.797 5.009 13.635 4.639C13.472 4.266 13.247 4.107 13.056 4.069C12.865 4.029 12.596 4.089 12.301 4.369V4.368ZM11.27 3.28C11.81 2.768 12.554 2.437 13.354 2.6C14.154 2.761 14.71 3.355 15.009 4.037C15.309 4.723 15.386 5.56 15.217 6.397C15.047 7.235 14.65 7.977 14.107 8.491C13.566 9.004 12.822 9.334 12.022 9.172C11.222 9.01 10.666 8.417 10.367 7.734C10.067 7.049 9.99 6.211 10.159 5.374C10.329 4.536 10.726 3.794 11.269 3.28H11.27ZM17.369 5.767C17.489 5.174 17.755 4.703 18.047 4.413C18.343 4.12 18.597 4.07 18.757 4.102C18.917 4.134 19.129 4.277 19.287 4.661C19.442 5.039 19.501 5.575 19.38 6.168C19.26 6.76 18.995 7.231 18.703 7.521C18.406 7.815 18.153 7.865 17.993 7.832C17.833 7.799 17.62 7.657 17.463 7.274C17.308 6.895 17.248 6.359 17.369 5.767ZM19.053 2.631C18.251 2.471 17.516 2.827 16.991 3.348C16.461 3.873 16.071 4.624 15.899 5.467C15.727 6.31 15.792 7.153 16.075 7.843C16.355 8.527 16.895 9.141 17.697 9.303C18.498 9.464 19.233 9.107 19.759 8.586C20.289 8.061 20.679 7.311 20.85 6.467C21.022 5.624 20.957 4.781 20.674 4.091C20.394 3.407 19.854 2.793 19.053 2.631Z" fill="#FFCC00"/>
</svg>
